<svg xmlns="http://www.w3.org/2000/svg" width="102" height="101" fill="none" viewBox="0 0 102 101">
  <g clip-path="url(#clip0)">
    <path fill="#000" d="M101.101 34.092a58.543 58.543 0 01-57.414 49.322c-2.807.109-5.618-.06-8.391-.505a25.717 25.717 0 01-21.387-24.245 24.972 24.972 0 0149.94-.353c.106 4.137-1.687 7.768-5.374 7.874-3.939 0-5.782-2.812-5.782-6.595V49.07a6.443 6.443 0 00-6.397-6.452h-8.82A15.354 15.354 0 0023.34 64.19a15.352 15.352 0 0025.477 4.014l.307-.463.312.509a10.857 10.857 0 009.258 4.41 12.242 12.242 0 0011.341-12.793 33.3 33.3 0 00-.913-8.135 31.158 31.158 0 00-61.61 6.746 31.55 31.55 0 0030.755 31.163s2.31.21 4.91.147A66.505 66.505 0 0078.845 79.15c.151-.105.303.106.202.257a52.351 52.351 0 01-40.78 16.678A36.796 36.796 0 01.814 58.328 38.081 38.081 0 0116.11 27.83a37.298 37.298 0 0122.005-7.264h11.838A33.31 33.31 0 0074.526 9.717a.463.463 0 01.537-.113.471.471 0 01.28.475 33.39 33.39 0 01-5.164 14.936.45.45 0 00.248.652c.083.03.174.036.26.017a35.793 35.793 0 0024.885-20.52.631.631 0 01.85-.223c.093.054.171.13.227.223a45.36 45.36 0 014.452 28.924v.004zM38.233 48.935a9.209 9.209 0 109.208 9.207V49.55a.665.665 0 00-.631-.631l-8.577.017z"/>
  </g>
  <defs>
    <clipPath id="clip0">
      <path fill="#fff" d="M0 0h101v101H0z" transform="translate(.8)"/>
    </clipPath>
  </defs>
</svg>
