<svg xmlns="http://www.w3.org/2000/svg" width="101" height="101" fill="none" viewBox="0 0 101 101">
  <g clip-path="url(#clip0)">
    <path fill="#000" d="M13.332 31.844v36.824h4.308V42.035a39.731 39.731 0 00-.214-5.047h.164c.312.805.707 1.578 1.168 2.301l18.937 29.36h5.277V31.844h-4.289v25.89c-.05 1.809.05 3.617.262 5.41h-.098a44.13 44.13 0 00-1.496-2.465l-18.43-28.832-5.589-.003zm39.191 0v36.824h19.578l.016-4.044h-15.19V51.851h13.3v-3.879h-13.3v-12.23h14.268v-3.895l-18.672-.003zm22.883 0v3.894h10.586v32.926H90.3V35.738h10.703v-3.894H75.406zM2.746 63.406a2.714 2.714 0 00-1.922.871 2.872 2.872 0 00-.82 2.023 2.844 2.844 0 004.866 2.024 2.838 2.838 0 00.855-2.024c0-.757-.312-1.496-.855-2.023a2.767 2.767 0 00-2.023-.87h-.101z"/>
  </g>
  <defs>
    <clipPath id="clip0">
      <path fill="#fff" d="M0 0h101v101H0z"/>
    </clipPath>
  </defs>
</svg>
