<svg xmlns="http://www.w3.org/2000/svg" width="107" height="107" fill="none" viewBox="0 0 107 107">
  <path fill="#E44F26" d="M19.735 90.953L12.22 6.687H94.78L87.255 90.94l-33.805 9.372-33.715-9.359z"/>
  <path fill="#F1662A" d="M53.5 93.15l27.318-7.573 6.427-71.998H53.5V93.15z"/>
  <path fill="#EBEBEB" d="M53.5 44.83H39.824l-.943-10.584H53.5V23.911H27.586l.247 2.775 2.538 28.479H53.5V44.829zM53.5 71.67l-.047.013-11.509-3.106-.736-8.242H30.833l1.448 16.223 21.172 5.879.047-.014V71.67z"/>
  <path fill="#fff" d="M53.463 44.83v10.335H66.19L64.993 68.57l-11.53 3.11v10.753l21.19-5.875.153-1.745 2.428-27.208.254-2.775H53.463zM53.463 23.91v10.336h24.965l.207-2.32.471-5.24.248-2.775h-25.89z"/>
</svg>
