<svg xmlns="http://www.w3.org/2000/svg" width="110" height="147" fill="none" viewBox="0 0 110 147">
  <g clip-path="url(#clip0)">
    <path fill="#5382A1" d="M35.35 113.637s-5.62 3.261 4 4.365c11.652 1.326 17.608 1.136 30.45-1.289 0 0 3.376 2.112 8.091 3.942-28.788 12.311-65.153-.714-42.541-7.018zM31.832 97.572s-6.303 4.655 3.323 5.649c12.448 1.281 22.279 1.386 39.29-1.882 0 0 2.353 2.38 6.052 3.681-34.806 10.156-73.574.801-48.665-7.448z"/>
    <path fill="#E76F00" d="M61.488 70.32c7.093 8.149-1.864 15.482-1.864 15.482s18.011-9.278 9.74-20.896c-7.726-10.834-13.65-16.218 18.422-34.778 0 0-50.343 12.546-26.298 40.192"/>
    <path fill="#5382A1" d="M99.562 125.52s4.159 3.419-4.58 6.064c-16.617 5.023-69.16 6.54-83.757.2-5.247-2.277 4.593-5.438 7.688-6.102 3.227-.698 5.072-.568 5.072-.568-5.835-4.102-37.717 8.054-16.194 11.535 58.696 9.498 106.996-4.276 91.771-11.129zM38.052 80.927s-26.727 6.334-9.464 8.634c7.288.974 21.818.753 35.352-.378 11.061-.93 22.168-2.91 22.168-2.91s-3.9 1.666-6.722 3.589C52.245 96.984-.187 93.67 14.908 86.385c12.765-6.157 23.144-5.459 23.144-5.459M85.998 107.668c27.59-14.306 14.833-28.053 5.93-26.201-2.183.453-3.156.845-3.156.845s.81-1.266 2.357-1.814c17.615-6.18 31.162 18.225-5.686 27.891 0 0 .427-.381.555-.721z"/>
    <path fill="#E76F00" d="M69.364.158S84.644 15.41 54.87 38.862c-23.874 18.814-5.444 29.54-.01 41.796-13.935-12.546-24.163-23.59-17.301-33.87C47.63 31.7 75.528 24.385 69.363.159"/>
    <path fill="#5382A1" d="M40.763 146.433c26.483 1.692 67.151-.939 68.114-13.443 0 0-1.851 4.741-21.887 8.505-22.603 4.245-50.482 3.749-67.017 1.029 0 0 3.385 2.795 20.79 3.909"/>
  </g>
  <defs>
    <clipPath id="clip0">
      <path fill="#fff" d="M0 0h109v147H0z" transform="translate(.2)"/>
    </clipPath>
  </defs>
</svg>
