<svg xmlns="http://www.w3.org/2000/svg" width="93" height="101" fill="none" viewBox="0 0 93 101">
  <path fill="#F7DF1E" d="M0 0h93v101H0V0z"/>
  <path fill="#000" d="M24.453 84.403l7.117-4.678c1.373 2.644 2.622 4.881 5.618 4.881 2.872 0 4.683-1.22 4.683-5.965V46.369h8.74v32.406c0 9.83-5.307 14.305-13.048 14.305-6.992 0-11.05-3.932-13.11-8.678M55.357 83.386l7.116-4.475c1.874 3.323 4.308 5.763 8.615 5.763 3.622 0 5.93-1.966 5.93-4.678 0-3.254-2.371-4.407-6.367-6.305l-2.184-1.018C62.16 69.76 57.979 66.098 57.979 58.37c0-7.12 4.994-12.543 12.798-12.543 5.556 0 9.551 2.102 12.422 7.593l-6.805 4.747c-1.498-2.915-3.12-4.068-5.618-4.068-2.56 0-4.183 1.763-4.183 4.068 0 2.847 1.624 4 5.369 5.763l2.185 1.017c7.429 3.458 11.611 6.983 11.611 14.915 0 8.543-6.18 13.22-14.483 13.22-8.115 0-13.359-4.203-15.918-9.695"/>
</svg>
