<svg xmlns="http://www.w3.org/2000/svg" width="131" height="50" fill="none" viewBox="0 0 131 50">
  <path fill="#FBFBFD" d="M5.524 2.357V19H1.47V2.357h4.054zM16.522 5.63c1.55 0 2.782.506 3.699 1.517.932.996 1.398 2.371 1.398 4.125V19h-4.03v-7.183c0-.885-.23-1.573-.687-2.063-.459-.49-1.075-.735-1.85-.735-.774 0-1.39.245-1.849.735-.458.49-.687 1.178-.687 2.063V19H8.462V5.771h4.054v1.755c.41-.585.964-1.044 1.66-1.375.695-.348 1.477-.522 2.346-.522zm15.975 0c1.549 0 2.782.506 3.698 1.517.933.996 1.4 2.371 1.4 4.125V19h-4.031v-7.183c0-.885-.23-1.573-.688-2.063-.458-.49-1.074-.735-1.849-.735-.774 0-1.39.245-1.85.735-.457.49-.687 1.178-.687 2.063V19h-4.054V5.771h4.054v1.755c.411-.585.965-1.044 1.66-1.375.695-.348 1.478-.522 2.347-.522zm13.936 13.56c-1.296 0-2.466-.276-3.509-.83a6.176 6.176 0 01-2.442-2.37c-.584-1.027-.877-2.228-.877-3.603 0-1.36.3-2.553.901-3.58a6.092 6.092 0 012.466-2.395c1.043-.553 2.212-.83 3.508-.83 1.296 0 2.466.277 3.509.83a6.092 6.092 0 012.466 2.395c.6 1.027.9 2.22.9 3.58 0 1.359-.308 2.56-.924 3.603a6.097 6.097 0 01-2.49 2.37c-1.043.554-2.212.83-3.508.83zm0-3.508c.774 0 1.43-.284 1.968-.853.553-.57.83-1.383.83-2.442 0-1.06-.27-1.873-.807-2.442a2.53 2.53 0 00-1.944-.854c-.79 0-1.446.285-1.967.854-.522.553-.783 1.367-.783 2.442 0 1.059.253 1.873.759 2.442a2.53 2.53 0 001.944.853zm15.024-.474l2.868-9.436h4.315L63.946 19h-5.002L54.25 5.771h4.338l2.869 9.436zm8.083-2.845c0-1.36.253-2.553.759-3.58.522-1.027 1.225-1.817 2.11-2.37.885-.554 1.873-.83 2.963-.83.933 0 1.747.19 2.442.569.712.379 1.257.877 1.636 1.493V5.771h4.054V19H79.45v-1.873c-.395.617-.948 1.114-1.66 1.494-.695.379-1.509.569-2.441.569a5.436 5.436 0 01-2.94-.83c-.885-.57-1.588-1.367-2.11-2.395-.506-1.043-.759-2.244-.759-3.603zm9.91.024c0-1.012-.284-1.81-.853-2.395a2.697 2.697 0 00-2.04-.877c-.805 0-1.493.292-2.062.877-.553.57-.83 1.36-.83 2.37 0 1.012.277 1.819.83 2.42a2.772 2.772 0 002.063.876c.806 0 1.485-.292 2.039-.877.569-.585.853-1.383.853-2.394zm14.36 3.176V19h-2.063c-1.47 0-2.615-.356-3.437-1.067-.822-.727-1.233-1.904-1.233-3.532V9.138h-1.612V5.77h1.612V2.547h4.054v3.224h2.655v3.367h-2.655v5.31c0 .395.095.68.284.854.19.174.506.26.949.26h1.446zm4.297-11.166c-.711 0-1.296-.205-1.754-.616a2.09 2.09 0 01-.664-1.565c0-.632.221-1.154.664-1.565.458-.426 1.043-.64 1.754-.64.695 0 1.264.214 1.707.64.458.411.687.933.687 1.565 0 .617-.229 1.138-.687 1.565-.443.41-1.012.616-1.707.616zm2.015 1.375V19h-4.054V5.771h4.054zm8.889 9.436l2.868-9.436h4.315L111.5 19h-5.002l-4.695-13.229h4.339l2.869 9.436zm21.359-3.035c0 .38-.023.775-.071 1.186h-9.175c.064.822.324 1.454.783 1.896.474.427 1.051.64 1.73.64 1.012 0 1.715-.426 2.11-1.28h4.315a5.839 5.839 0 01-1.209 2.347 5.887 5.887 0 01-2.157 1.636c-.87.395-1.842.593-2.916.593-1.296 0-2.45-.277-3.462-.83a5.904 5.904 0 01-2.37-2.37c-.569-1.028-.854-2.23-.854-3.604 0-1.375.277-2.577.83-3.604a5.9 5.9 0 012.371-2.37c1.011-.554 2.173-.83 3.485-.83 1.28 0 2.418.268 3.414.806a5.713 5.713 0 012.323 2.3c.569.995.853 2.157.853 3.484zm-4.148-1.067c0-.695-.238-1.248-.712-1.66-.474-.41-1.067-.615-1.778-.615-.679 0-1.256.197-1.73.592-.459.395-.743.956-.854 1.683h5.074zM55.346 43.166c-1.217 0-2.307-.198-3.271-.593-.964-.395-1.739-.98-2.324-1.754-.569-.775-.869-1.707-.9-2.798h4.314c.063.617.277 1.091.64 1.423.364.316.838.474 1.423.474.6 0 1.075-.134 1.422-.403.348-.285.522-.672.522-1.162 0-.41-.142-.75-.427-1.02a3.165 3.165 0 00-1.02-.663c-.395-.174-.964-.371-1.706-.593-1.075-.331-1.952-.663-2.632-.995a4.863 4.863 0 01-1.754-1.47c-.49-.648-.735-1.494-.735-2.537 0-1.549.561-2.758 1.683-3.627 1.122-.885 2.584-1.328 4.386-1.328 1.833 0 3.311.443 4.433 1.328 1.122.87 1.723 2.086 1.802 3.65h-4.386c-.031-.537-.229-.955-.593-1.256-.363-.316-.83-.474-1.398-.474-.49 0-.885.135-1.186.403-.3.253-.45.624-.45 1.114 0 .538.253.957.759 1.257.505.3 1.296.624 2.37.972 1.075.364 1.944.711 2.608 1.043.68.332 1.264.814 1.755 1.446.49.633.734 1.446.734 2.442 0 .948-.245 1.81-.734 2.584-.475.775-1.17 1.391-2.087 1.85-.916.458-2 .687-3.248.687zm7.758-6.804c0-1.36.253-2.553.759-3.58.521-1.027 1.225-1.817 2.11-2.37.885-.554 1.873-.83 2.963-.83.933 0 1.747.19 2.442.569.711.379 1.257.877 1.636 1.493v-1.873h4.054V43h-4.054v-1.873c-.395.616-.948 1.114-1.66 1.494-.695.379-1.509.569-2.442.569a5.436 5.436 0 01-2.94-.83c-.884-.57-1.588-1.367-2.11-2.395-.505-1.043-.758-2.244-.758-3.603zm9.91.024c0-1.012-.285-1.81-.854-2.395a2.697 2.697 0 00-2.038-.877c-.806 0-1.494.292-2.063.877-.553.57-.83 1.36-.83 2.37 0 1.012.277 1.819.83 2.42a2.772 2.772 0 002.063.876c.806 0 1.485-.292 2.038-.877.57-.585.854-1.383.854-2.394zm12.937 2.82l2.869-9.435h4.315L88.44 43h-5.003l-4.694-13.229h4.339l2.868 9.436zm14.841 0l2.868-9.435h4.315L103.281 43h-5.002l-4.694-13.229h4.338l2.869 9.436zm22.403-9.435l-8.298 19.511h-4.362l3.034-6.732-5.381-12.779h4.528l3.058 8.274 3.035-8.274h4.386z"/>
  <path fill="#0094FF" d="M7.492 43.166c-1.217 0-2.308-.198-3.272-.593-.964-.395-1.739-.98-2.323-1.754-.57-.775-.87-1.707-.901-2.798H5.31c.064.617.277 1.091.64 1.423.364.316.838.474 1.423.474.6 0 1.075-.134 1.422-.403.348-.285.522-.672.522-1.162 0-.41-.142-.75-.427-1.02a3.165 3.165 0 00-1.02-.663c-.394-.174-.963-.371-1.706-.593-1.075-.331-1.952-.663-2.632-.995a4.862 4.862 0 01-1.754-1.47c-.49-.648-.735-1.494-.735-2.537 0-1.549.561-2.758 1.683-3.627 1.123-.885 2.584-1.328 4.386-1.328 1.834 0 3.311.443 4.434 1.328 1.122.87 1.722 2.086 1.801 3.65H8.961c-.031-.537-.229-.955-.592-1.256-.364-.316-.83-.474-1.399-.474-.49 0-.885.135-1.185.403-.3.253-.45.624-.45 1.114 0 .538.252.957.758 1.257.506.3 1.296.624 2.37.972 1.075.364 1.945.711 2.608 1.043.68.332 1.265.814 1.755 1.446.49.633.735 1.446.735 2.442 0 .948-.245 1.81-.735 2.584-.474.775-1.17 1.391-2.087 1.85-.916.458-1.999.687-3.247.687zm14.585.024c-1.296 0-2.465-.277-3.509-.83a6.177 6.177 0 01-2.441-2.37c-.585-1.028-.878-2.23-.878-3.604 0-1.36.3-2.553.901-3.58a6.092 6.092 0 012.466-2.395c1.043-.553 2.213-.83 3.509-.83 1.296 0 2.465.277 3.508.83a6.092 6.092 0 012.466 2.395c.6 1.027.9 2.22.9 3.58 0 1.359-.307 2.56-.924 3.603a6.097 6.097 0 01-2.49 2.37c-1.042.554-2.212.83-3.508.83zm0-3.509c.775 0 1.43-.284 1.968-.853.553-.57.83-1.383.83-2.442 0-1.06-.269-1.873-.806-2.442a2.53 2.53 0 00-1.944-.854c-.79 0-1.447.285-1.968.854-.522.553-.782 1.367-.782 2.442 0 1.059.252 1.872.758 2.441a2.53 2.53 0 001.944.854zm15.711-6.543h-2.18V43h-4.054v-9.862h-1.47V29.77h1.47v-.38c0-1.627.466-2.86 1.398-3.697.933-.854 2.3-1.28 4.102-1.28.3 0 .521.007.663.023v3.438c-.774-.048-1.32.063-1.635.332-.316.268-.474.75-.474 1.446v.118h2.18v3.367zm9.279 6.424V43h-2.063c-1.47 0-2.616-.356-3.438-1.067-.822-.727-1.232-1.904-1.232-3.532v-5.263H38.72V29.77h1.613v-3.224h4.054v3.224h2.655v3.367h-2.655v5.31c0 .395.094.68.284.854.19.173.506.26.948.26h1.447z"/>
</svg>
