<svg xmlns="http://www.w3.org/2000/svg" width="312" height="32" fill="none" viewBox="0 0 312 32">
  <path fill="#FBFBFD" d="M5.8 3.513V24H.81V3.513H5.8zM19.34 7.54c1.906 0 3.423.623 4.552 1.868 1.148 1.226 1.722 2.918 1.722 5.078V24h-4.962v-8.843c0-1.09-.282-1.936-.846-2.539-.564-.603-1.323-.905-2.276-.905-.954 0-1.712.302-2.277.905-.564.603-.846 1.45-.846 2.54V24h-4.99V7.715h4.99v2.16c.506-.72 1.187-1.284 2.043-1.693.856-.428 1.82-.642 2.89-.642zm19.664 0c1.907 0 3.425.623 4.553 1.868 1.148 1.226 1.722 2.918 1.722 5.078V24h-4.961v-8.843c0-1.09-.282-1.936-.847-2.539-.564-.603-1.323-.905-2.276-.905-.953 0-1.712.302-2.276.905-.565.603-.847 1.45-.847 2.54V24h-4.99V7.715h4.99v2.16c.506-.72 1.187-1.284 2.043-1.693.856-.428 1.82-.642 2.89-.642zM56.16 24.234c-1.596 0-3.035-.341-4.32-1.022a7.602 7.602 0 01-3.006-2.918c-.72-1.265-1.08-2.744-1.08-4.436 0-1.674.37-3.143 1.11-4.407a7.498 7.498 0 013.035-2.948c1.284-.68 2.724-1.021 4.319-1.021 1.595 0 3.035.34 4.32 1.021a7.498 7.498 0 013.034 2.948c.74 1.264 1.11 2.733 1.11 4.407 0 1.673-.38 3.151-1.139 4.436a7.504 7.504 0 01-3.064 2.918c-1.284.681-2.724 1.021-4.32 1.021zm0-4.32c.953 0 1.76-.35 2.422-1.05.68-.7 1.021-1.703 1.021-3.006 0-1.304-.33-2.306-.992-3.006-.642-.7-1.44-1.051-2.393-1.051-.973 0-1.78.35-2.422 1.05-.642.682-.963 1.684-.963 3.007 0 1.303.31 2.305.934 3.006.642.7 1.44 1.05 2.393 1.05zm18.494-.584l3.532-11.615h5.311L77.72 24H71.56L65.782 7.715h5.34l3.532 11.616zm9.951-3.502c0-1.673.312-3.142.934-4.406.642-1.265 1.508-2.238 2.598-2.919 1.09-.68 2.305-1.021 3.648-1.021 1.148 0 2.15.233 3.006.7.875.467 1.546 1.08 2.013 1.839V7.715h4.991V24h-4.99v-2.306c-.487.76-1.168 1.372-2.044 1.84-.856.466-1.858.7-3.005.7-1.323 0-2.53-.341-3.62-1.022-1.089-.7-1.955-1.683-2.597-2.948-.622-1.284-.934-2.762-.934-4.436zm12.2.03c0-1.246-.35-2.228-1.051-2.948-.681-.72-1.518-1.08-2.51-1.08-.992 0-1.839.36-2.54 1.08-.68.7-1.02 1.673-1.02 2.918 0 1.246.34 2.238 1.02 2.977.701.72 1.548 1.08 2.54 1.08s1.829-.36 2.51-1.08c.7-.72 1.05-1.702 1.05-2.947zm17.677 3.91V24h-2.539c-1.81 0-3.22-.438-4.232-1.313-1.012-.895-1.518-2.345-1.518-4.349V11.86h-1.984V7.715h1.984V3.746h4.991v3.97h3.268v4.143h-3.268v6.538c0 .486.117.836.35 1.05.233.214.623.321 1.167.321h1.781zm5.289-13.745c-.875 0-1.595-.253-2.159-.76a2.573 2.573 0 01-.818-1.925c0-.779.273-1.42.818-1.927.564-.525 1.284-.788 2.159-.788.856 0 1.557.263 2.102.788.564.506.846 1.148.846 1.927 0 .758-.282 1.4-.846 1.926-.545.506-1.246.758-2.102.758zm2.481 1.692V24h-4.991V7.715h4.991zm10.942 11.616l3.531-11.616h5.312L136.258 24H130.1l-5.778-16.285h5.34l3.532 11.616zm26.294-3.736c0 .467-.029.953-.088 1.46h-11.294c.078 1.01.399 1.79.963 2.334.584.525 1.294.788 2.131.788 1.245 0 2.111-.526 2.597-1.576h5.312a7.202 7.202 0 01-1.489 2.89c-.7.855-1.585 1.526-2.656 2.013-1.07.486-2.266.73-3.589.73-1.596 0-3.016-.341-4.261-1.022a7.262 7.262 0 01-2.918-2.918c-.701-1.265-1.051-2.744-1.051-4.436 0-1.693.34-3.172 1.021-4.436a7.271 7.271 0 012.919-2.919c1.245-.68 2.675-1.021 4.29-1.021 1.576 0 2.977.33 4.202.992a7.028 7.028 0 012.86 2.83c.701 1.227 1.051 2.657 1.051 4.29zm-5.107-1.313c0-.856-.292-1.537-.876-2.043-.583-.506-1.313-.759-2.189-.759-.836 0-1.546.243-2.13.73-.564.486-.914 1.177-1.051 2.072h6.246zm74.063 9.922c-1.499 0-2.841-.243-4.028-.73-1.187-.486-2.14-1.206-2.86-2.159-.7-.953-1.07-2.101-1.109-3.444h5.312c.077.76.34 1.343.788 1.751.447.39 1.031.584 1.751.584.739 0 1.323-.165 1.751-.496.428-.35.642-.827.642-1.43 0-.506-.175-.924-.526-1.255a3.891 3.891 0 00-1.254-.817c-.487-.214-1.187-.457-2.102-.73-1.323-.408-2.403-.817-3.239-1.226-.837-.408-1.557-1.011-2.16-1.809-.603-.798-.905-1.839-.905-3.123 0-1.906.691-3.395 2.073-4.465 1.381-1.09 3.181-1.634 5.399-1.634 2.257 0 4.076.545 5.457 1.634 1.381 1.07 2.121 2.568 2.218 4.495h-5.399c-.039-.662-.282-1.178-.73-1.547-.447-.39-1.021-.584-1.721-.584-.604 0-1.09.165-1.46.496-.369.311-.554.769-.554 1.372 0 .661.311 1.177.934 1.547.622.37 1.595.768 2.918 1.196 1.323.448 2.393.876 3.21 1.284a6.097 6.097 0 012.16 1.78c.603.779.905 1.78.905 3.007 0 1.167-.302 2.227-.905 3.18-.584.954-1.44 1.713-2.568 2.277-1.129.564-2.461.846-3.998.846zm9.55-8.376c0-1.673.311-3.142.934-4.406.642-1.265 1.507-2.238 2.597-2.919 1.09-.68 2.306-1.021 3.648-1.021 1.148 0 2.15.233 3.006.7.876.467 1.547 1.08 2.014 1.839V7.715h4.99V24h-4.99v-2.306c-.487.76-1.168 1.372-2.043 1.84-.856.466-1.858.7-3.006.7-1.323 0-2.529-.341-3.619-1.022-1.09-.7-1.955-1.683-2.597-2.948-.623-1.284-.934-2.762-.934-4.436zm12.199.03c0-1.246-.351-2.228-1.051-2.948-.681-.72-1.518-1.08-2.51-1.08-.992 0-1.838.36-2.539 1.08-.681.7-1.021 1.673-1.021 2.918 0 1.246.34 2.238 1.021 2.977.701.72 1.547 1.08 2.539 1.08.992 0 1.829-.36 2.51-1.08.7-.72 1.051-1.702 1.051-2.947zm15.926 3.473l3.531-11.616h5.312L269.183 24h-6.158l-5.778-16.285h5.341l3.531 11.616zm18.269 0l3.531-11.616h5.311L287.452 24h-6.158l-5.779-16.285h5.341l3.532 11.616zm27.578-11.616l-10.215 24.019h-5.369l3.735-8.289-6.625-15.73h5.574l3.765 10.186 3.736-10.186h5.399z"/>
  <path fill="#0094FF" d="M169.534 24.204c-1.499 0-2.841-.243-4.028-.73-1.187-.486-2.14-1.206-2.86-2.159-.7-.953-1.07-2.101-1.109-3.444h5.312c.077.76.34 1.343.788 1.751.447.39 1.031.584 1.751.584.739 0 1.323-.165 1.751-.496.428-.35.642-.827.642-1.43 0-.506-.175-.924-.526-1.255a3.891 3.891 0 00-1.254-.817c-.487-.214-1.187-.457-2.102-.73-1.323-.408-2.403-.817-3.239-1.226-.837-.408-1.557-1.011-2.16-1.809-.603-.798-.905-1.839-.905-3.123 0-1.906.691-3.395 2.073-4.465 1.381-1.09 3.181-1.634 5.399-1.634 2.257 0 4.076.545 5.457 1.634 1.381 1.07 2.121 2.568 2.218 4.495h-5.399c-.039-.662-.282-1.178-.73-1.547-.447-.39-1.021-.584-1.721-.584-.604 0-1.09.165-1.46.496-.369.311-.554.769-.554 1.372 0 .661.311 1.177.934 1.547.622.37 1.595.768 2.918 1.196 1.323.448 2.393.876 3.21 1.284a6.097 6.097 0 012.16 1.78c.603.779.905 1.78.905 3.007 0 1.167-.302 2.227-.905 3.18-.584.954-1.44 1.713-2.568 2.277-1.129.564-2.461.846-3.998.846zm17.955.03c-1.596 0-3.035-.341-4.32-1.022a7.611 7.611 0 01-3.006-2.918c-.719-1.265-1.079-2.744-1.079-4.436 0-1.674.369-3.143 1.109-4.407a7.497 7.497 0 013.035-2.948c1.284-.68 2.724-1.021 4.319-1.021 1.596 0 3.035.34 4.319 1.021a7.505 7.505 0 013.036 2.948c.739 1.264 1.109 2.733 1.109 4.407 0 1.673-.38 3.151-1.139 4.436a7.499 7.499 0 01-3.064 2.918c-1.284.681-2.724 1.021-4.319 1.021zm0-4.32c.953 0 1.761-.35 2.422-1.05.681-.7 1.021-1.703 1.021-3.006 0-1.304-.33-2.306-.992-3.006-.642-.7-1.44-1.051-2.393-1.051-.973 0-1.78.35-2.422 1.05-.642.682-.963 1.684-.963 3.007 0 1.303.311 2.305.934 3.006.642.7 1.439 1.05 2.393 1.05zm19.341-8.055h-2.685V24h-4.991V11.86h-1.809V7.714h1.809v-.467c0-2.004.574-3.521 1.722-4.553 1.148-1.05 2.831-1.575 5.049-1.575.37 0 .642.01.817.029V5.38c-.953-.058-1.624.078-2.014.409-.389.33-.583.924-.583 1.78v.146h2.685v4.144zm11.421 7.91V24h-2.539c-1.809 0-3.22-.438-4.232-1.313-1.011-.895-1.517-2.345-1.517-4.349V11.86h-1.985V7.715h1.985V3.746h4.99v3.97h3.269v4.143h-3.269v6.538c0 .486.117.836.35 1.05.234.214.623.321 1.168.321h1.78z"/>
</svg>
