<svg xmlns="http://www.w3.org/2000/svg" width="91" height="91" fill="none" viewBox="0 0 91 91">
  <path fill="#000" d="M82.605 65.52c-11.203 14.944-35.125 9.9-50.466 10.623 0 0-2.718.154-5.45.604 0 0 1.035-.44 2.355-.9 10.772-3.73 15.863-4.48 22.41-7.846 12.297-6.306 24.54-20.05 27.03-34.325-4.682 13.73-18.92 25.547-31.884 30.345-8.871 3.28-24.92 6.47-24.925 6.47a23.959 23.959 0 01-.648-.345C10.114 64.83 9.797 41.159 29.62 33.53c8.693-3.344 17.002-1.508 26.399-3.748 10.018-2.385 21.625-9.905 26.34-19.736 5.286 15.71 11.638 40.281.245 55.474zm.19-60.336a41.872 41.872 0 01-4.832 8.587 45.292 45.292 0 00-14.865-10.19A45.242 45.242 0 0045.443 0C20.383 0 0 20.409 0 45.498a45.408 45.408 0 003.79 18.184 45.355 45.355 0 0010.753 15.137l.998.882a3.891 3.891 0 012.75-6.637c1.03 0 2.017.41 2.745 1.139a3.891 3.891 0 01-2.744 6.639 3.882 3.882 0 01-2.747-1.137l.676.6A45.158 45.158 0 0045.443 91C69.39 91 89.06 72.336 90.745 48.783c1.243-11.536-2.16-26.184-7.95-43.599z"/>
</svg>
